<mxfile host="app.diagrams.net" agent="Mozilla/5.0 (Windows NT 10.0; Win64; x64; rv:131.0) Gecko/20100101 Firefox/131.0" version="24.7.17">
  <diagram name="Seite-1" id="XW_0ANEHmPP_M-6RpB5G">
    <mxGraphModel dx="2601" dy="941" grid="1" gridSize="10" guides="1" tooltips="1" connect="1" arrows="1" fold="1" page="1" pageScale="1" pageWidth="827" pageHeight="1169" math="0" shadow="0">
      <root>
        <mxCell id="0" />
        <mxCell id="1" parent="0" />
        <mxCell id="kurR8D_o498Ej0qyucVB-48" value="" style="rounded=0;whiteSpace=wrap;html=1;fillColor=#A9C4EB;strokeColor=#666666;fontColor=#333333;opacity=10;" parent="1" vertex="1">
          <mxGeometry x="-322" y="160" width="742" height="770" as="geometry" />
        </mxCell>
        <mxCell id="P1MDgO6zlZVomxwXiuD8-85" value="Pool" style="swimlane;html=1;startSize=20;fontStyle=0;collapsible=0;horizontal=0;swimlaneLine=1;swimlaneFillColor=#ffffff;strokeWidth=1;whiteSpace=wrap;" parent="1" vertex="1">
          <mxGeometry x="-280" y="200" width="660" height="100" as="geometry" />
        </mxCell>
        <mxCell id="P1MDgO6zlZVomxwXiuD8-92" style="edgeStyle=orthogonalEdgeStyle;rounded=0;orthogonalLoop=1;jettySize=auto;html=1;exitX=1;exitY=0.5;exitDx=0;exitDy=0;exitPerimeter=0;" parent="P1MDgO6zlZVomxwXiuD8-85" source="P1MDgO6zlZVomxwXiuD8-88" target="P1MDgO6zlZVomxwXiuD8-91" edge="1">
          <mxGeometry relative="1" as="geometry" />
        </mxCell>
        <mxCell id="P1MDgO6zlZVomxwXiuD8-88" value="Startereignis" style="points=[[0.145,0.145,0],[0.5,0,0],[0.855,0.145,0],[1,0.5,0],[0.855,0.855,0],[0.5,1,0],[0.145,0.855,0],[0,0.5,0]];shape=mxgraph.bpmn.event;html=1;verticalLabelPosition=bottom;labelBackgroundColor=#ffffff;verticalAlign=top;align=center;perimeter=ellipsePerimeter;outlineConnect=0;aspect=fixed;outline=standard;symbol=general;" parent="P1MDgO6zlZVomxwXiuD8-85" vertex="1">
          <mxGeometry x="40" y="20" width="45" height="45" as="geometry" />
        </mxCell>
        <mxCell id="P1MDgO6zlZVomxwXiuD8-91" value="Zwischenereignis 1" style="points=[[0.145,0.145,0],[0.5,0,0],[0.855,0.145,0],[1,0.5,0],[0.855,0.855,0],[0.5,1,0],[0.145,0.855,0],[0,0.5,0]];shape=mxgraph.bpmn.event;html=1;verticalLabelPosition=top;labelBackgroundColor=#ffffff;verticalAlign=bottom;align=center;perimeter=ellipsePerimeter;outlineConnect=0;aspect=fixed;outline=throwing;symbol=general;labelPosition=center;" parent="P1MDgO6zlZVomxwXiuD8-85" vertex="1">
          <mxGeometry x="120" y="17.5" width="50" height="50" as="geometry" />
        </mxCell>
        <mxCell id="P1MDgO6zlZVomxwXiuD8-113" value="Zwischenereignis 2" style="points=[[0.145,0.145,0],[0.5,0,0],[0.855,0.145,0],[1,0.5,0],[0.855,0.855,0],[0.5,1,0],[0.145,0.855,0],[0,0.5,0]];shape=mxgraph.bpmn.event;html=1;verticalLabelPosition=top;labelBackgroundColor=#ffffff;verticalAlign=bottom;align=center;perimeter=ellipsePerimeter;outlineConnect=0;aspect=fixed;outline=throwing;symbol=general;labelPosition=center;" parent="P1MDgO6zlZVomxwXiuD8-85" vertex="1">
          <mxGeometry x="490" y="17.5" width="50" height="50" as="geometry" />
        </mxCell>
        <mxCell id="P1MDgO6zlZVomxwXiuD8-116" value="Endereignis 2" style="points=[[0.145,0.145,0],[0.5,0,0],[0.855,0.145,0],[1,0.5,0],[0.855,0.855,0],[0.5,1,0],[0.145,0.855,0],[0,0.5,0]];shape=mxgraph.bpmn.event;html=1;verticalLabelPosition=bottom;labelBackgroundColor=#ffffff;verticalAlign=top;align=center;perimeter=ellipsePerimeter;outlineConnect=0;aspect=fixed;outline=end;symbol=terminate2;" parent="P1MDgO6zlZVomxwXiuD8-85" vertex="1">
          <mxGeometry x="580" y="18.75" width="47.5" height="47.5" as="geometry" />
        </mxCell>
        <mxCell id="P1MDgO6zlZVomxwXiuD8-117" style="edgeStyle=orthogonalEdgeStyle;rounded=0;orthogonalLoop=1;jettySize=auto;html=1;exitX=1;exitY=0.5;exitDx=0;exitDy=0;exitPerimeter=0;entryX=0;entryY=0.5;entryDx=0;entryDy=0;entryPerimeter=0;" parent="P1MDgO6zlZVomxwXiuD8-85" source="P1MDgO6zlZVomxwXiuD8-113" target="P1MDgO6zlZVomxwXiuD8-116" edge="1">
          <mxGeometry relative="1" as="geometry" />
        </mxCell>
        <mxCell id="P1MDgO6zlZVomxwXiuD8-86" value="Pool" style="swimlane;html=1;startSize=20;fontStyle=0;collapsible=0;horizontal=0;swimlaneLine=1;swimlaneFillColor=#ffffff;strokeWidth=1;whiteSpace=wrap;" parent="1" vertex="1">
          <mxGeometry x="-280" y="350" width="660" height="100" as="geometry" />
        </mxCell>
        <mxCell id="P1MDgO6zlZVomxwXiuD8-101" value="Aktivität 1" style="points=[[0.25,0,0],[0.5,0,0],[0.75,0,0],[1,0.25,0],[1,0.5,0],[1,0.75,0],[0.75,1,0],[0.5,1,0],[0.25,1,0],[0,0.75,0],[0,0.5,0],[0,0.25,0]];shape=mxgraph.bpmn.task;whiteSpace=wrap;rectStyle=rounded;size=10;html=1;container=1;expand=0;collapsible=0;taskMarker=abstract;" parent="P1MDgO6zlZVomxwXiuD8-86" vertex="1">
          <mxGeometry x="260" y="10" width="120" height="80" as="geometry" />
        </mxCell>
        <mxCell id="P1MDgO6zlZVomxwXiuD8-87" value="Pool" style="swimlane;html=1;startSize=20;fontStyle=0;collapsible=0;horizontal=0;swimlaneLine=1;swimlaneFillColor=#ffffff;strokeWidth=1;whiteSpace=wrap;" parent="1" vertex="1">
          <mxGeometry x="-280" y="450" width="660" height="100" as="geometry" />
        </mxCell>
        <mxCell id="P1MDgO6zlZVomxwXiuD8-93" value="Ereignis 1" style="points=[[0.145,0.145,0],[0.5,0,0],[0.855,0.145,0],[1,0.5,0],[0.855,0.855,0],[0.5,1,0],[0.145,0.855,0],[0,0.5,0]];shape=mxgraph.bpmn.event;html=1;verticalLabelPosition=bottom;labelBackgroundColor=#ffffff;verticalAlign=top;align=center;perimeter=ellipsePerimeter;outlineConnect=0;aspect=fixed;outline=standard;symbol=general;" parent="P1MDgO6zlZVomxwXiuD8-87" vertex="1">
          <mxGeometry x="122.5" y="27.5" width="45" height="45" as="geometry" />
        </mxCell>
        <mxCell id="P1MDgO6zlZVomxwXiuD8-99" value="(parallel)" style="points=[[0.25,0.25,0],[0.5,0,0],[0.75,0.25,0],[1,0.5,0],[0.75,0.75,0],[0.5,1,0],[0.25,0.75,0],[0,0.5,0]];shape=mxgraph.bpmn.gateway2;html=1;verticalLabelPosition=bottom;labelBackgroundColor=#ffffff;verticalAlign=top;align=center;perimeter=rhombusPerimeter;outlineConnect=0;outline=none;symbol=none;gwType=parallel;" parent="P1MDgO6zlZVomxwXiuD8-87" vertex="1">
          <mxGeometry x="190" y="25" width="50" height="50" as="geometry" />
        </mxCell>
        <mxCell id="P1MDgO6zlZVomxwXiuD8-100" style="edgeStyle=orthogonalEdgeStyle;rounded=0;orthogonalLoop=1;jettySize=auto;html=1;exitX=1;exitY=0.5;exitDx=0;exitDy=0;exitPerimeter=0;entryX=0;entryY=0.5;entryDx=0;entryDy=0;entryPerimeter=0;" parent="P1MDgO6zlZVomxwXiuD8-87" source="P1MDgO6zlZVomxwXiuD8-93" target="P1MDgO6zlZVomxwXiuD8-99" edge="1">
          <mxGeometry relative="1" as="geometry" />
        </mxCell>
        <mxCell id="P1MDgO6zlZVomxwXiuD8-102" value="Aktivität 2" style="points=[[0.25,0,0],[0.5,0,0],[0.75,0,0],[1,0.25,0],[1,0.5,0],[1,0.75,0],[0.75,1,0],[0.5,1,0],[0.25,1,0],[0,0.75,0],[0,0.5,0],[0,0.25,0]];shape=mxgraph.bpmn.task;whiteSpace=wrap;rectStyle=rounded;size=10;html=1;container=1;expand=0;collapsible=0;taskMarker=abstract;" parent="P1MDgO6zlZVomxwXiuD8-87" vertex="1">
          <mxGeometry x="260" y="10" width="120" height="80" as="geometry" />
        </mxCell>
        <mxCell id="P1MDgO6zlZVomxwXiuD8-106" style="edgeStyle=orthogonalEdgeStyle;rounded=0;orthogonalLoop=1;jettySize=auto;html=1;exitX=1;exitY=0.5;exitDx=0;exitDy=0;exitPerimeter=0;entryX=0;entryY=0.5;entryDx=0;entryDy=0;entryPerimeter=0;" parent="P1MDgO6zlZVomxwXiuD8-87" source="P1MDgO6zlZVomxwXiuD8-99" target="P1MDgO6zlZVomxwXiuD8-102" edge="1">
          <mxGeometry relative="1" as="geometry" />
        </mxCell>
        <mxCell id="P1MDgO6zlZVomxwXiuD8-107" value="" style="points=[[0.25,0.25,0],[0.5,0,0],[0.75,0.25,0],[1,0.5,0],[0.75,0.75,0],[0.5,1,0],[0.25,0.75,0],[0,0.5,0]];shape=mxgraph.bpmn.gateway2;html=1;verticalLabelPosition=bottom;labelBackgroundColor=#ffffff;verticalAlign=top;align=center;perimeter=rhombusPerimeter;outlineConnect=0;outline=none;symbol=none;gwType=parallel;" parent="P1MDgO6zlZVomxwXiuD8-87" vertex="1">
          <mxGeometry x="400" y="25" width="50" height="50" as="geometry" />
        </mxCell>
        <mxCell id="P1MDgO6zlZVomxwXiuD8-108" style="edgeStyle=orthogonalEdgeStyle;rounded=0;orthogonalLoop=1;jettySize=auto;html=1;exitX=1;exitY=0.5;exitDx=0;exitDy=0;exitPerimeter=0;entryX=0;entryY=0.5;entryDx=0;entryDy=0;entryPerimeter=0;" parent="P1MDgO6zlZVomxwXiuD8-87" source="P1MDgO6zlZVomxwXiuD8-102" target="P1MDgO6zlZVomxwXiuD8-107" edge="1">
          <mxGeometry relative="1" as="geometry" />
        </mxCell>
        <mxCell id="P1MDgO6zlZVomxwXiuD8-118" value="" style="edgeStyle=orthogonalEdgeStyle;rounded=0;orthogonalLoop=1;jettySize=auto;html=1;exitX=1;exitY=0.5;exitDx=0;exitDy=0;exitPerimeter=0;entryX=0;entryY=0.5;entryDx=0;entryDy=0;entryPerimeter=0;" parent="P1MDgO6zlZVomxwXiuD8-87" source="P1MDgO6zlZVomxwXiuD8-107" target="P1MDgO6zlZVomxwXiuD8-115" edge="1">
          <mxGeometry relative="1" as="geometry">
            <mxPoint x="170" y="500" as="sourcePoint" />
            <mxPoint x="280" y="500" as="targetPoint" />
          </mxGeometry>
        </mxCell>
        <mxCell id="P1MDgO6zlZVomxwXiuD8-115" value="Endereignis 1" style="points=[[0.145,0.145,0],[0.5,0,0],[0.855,0.145,0],[1,0.5,0],[0.855,0.855,0],[0.5,1,0],[0.145,0.855,0],[0,0.5,0]];shape=mxgraph.bpmn.event;html=1;verticalLabelPosition=bottom;labelBackgroundColor=#ffffff;verticalAlign=top;align=center;perimeter=ellipsePerimeter;outlineConnect=0;aspect=fixed;outline=end;symbol=terminate2;" parent="P1MDgO6zlZVomxwXiuD8-87" vertex="1">
          <mxGeometry x="490" y="25" width="50" height="50" as="geometry" />
        </mxCell>
        <mxCell id="P1MDgO6zlZVomxwXiuD8-94" style="edgeStyle=orthogonalEdgeStyle;rounded=0;orthogonalLoop=1;jettySize=auto;html=1;exitX=0.5;exitY=1;exitDx=0;exitDy=0;exitPerimeter=0;entryX=0.5;entryY=0;entryDx=0;entryDy=0;entryPerimeter=0;" parent="1" source="P1MDgO6zlZVomxwXiuD8-91" target="P1MDgO6zlZVomxwXiuD8-93" edge="1">
          <mxGeometry relative="1" as="geometry" />
        </mxCell>
        <mxCell id="P1MDgO6zlZVomxwXiuD8-104" style="edgeStyle=orthogonalEdgeStyle;rounded=0;orthogonalLoop=1;jettySize=auto;html=1;exitX=0.5;exitY=0;exitDx=0;exitDy=0;exitPerimeter=0;entryX=0;entryY=0.5;entryDx=0;entryDy=0;entryPerimeter=0;" parent="1" source="P1MDgO6zlZVomxwXiuD8-99" target="P1MDgO6zlZVomxwXiuD8-101" edge="1">
          <mxGeometry relative="1" as="geometry" />
        </mxCell>
        <mxCell id="P1MDgO6zlZVomxwXiuD8-109" style="edgeStyle=orthogonalEdgeStyle;rounded=0;orthogonalLoop=1;jettySize=auto;html=1;exitX=1;exitY=0.5;exitDx=0;exitDy=0;exitPerimeter=0;entryX=0.5;entryY=0;entryDx=0;entryDy=0;entryPerimeter=0;" parent="1" source="P1MDgO6zlZVomxwXiuD8-101" target="P1MDgO6zlZVomxwXiuD8-107" edge="1">
          <mxGeometry relative="1" as="geometry" />
        </mxCell>
        <mxCell id="P1MDgO6zlZVomxwXiuD8-119" style="edgeStyle=orthogonalEdgeStyle;rounded=0;orthogonalLoop=1;jettySize=auto;html=1;exitX=0.5;exitY=0;exitDx=0;exitDy=0;exitPerimeter=0;" parent="1" source="P1MDgO6zlZVomxwXiuD8-115" target="P1MDgO6zlZVomxwXiuD8-113" edge="1">
          <mxGeometry relative="1" as="geometry" />
        </mxCell>
        <mxCell id="P1MDgO6zlZVomxwXiuD8-25" value="Grundelemente BPMN" style="shape=table;startSize=30;container=1;collapsible=0;childLayout=tableLayout;labelBackgroundColor=none;labelBorderColor=none;textShadow=0;fontSize=13;fontStyle=1;strokeWidth=1;fillColor=#E6E6E6;gradientColor=none;swimlaneFillColor=default;rounded=1;shadow=0;swimlaneLine=1;opacity=60;" parent="1" vertex="1">
          <mxGeometry x="-165" y="610" width="430" height="280" as="geometry" />
        </mxCell>
        <mxCell id="P1MDgO6zlZVomxwXiuD8-26" value="" style="shape=tableRow;horizontal=0;startSize=0;swimlaneHead=0;swimlaneBody=0;strokeColor=inherit;top=0;left=0;bottom=0;right=0;collapsible=0;dropTarget=0;fillColor=none;points=[[0,0.5],[1,0.5]];portConstraint=eastwest;fontSize=13;" parent="P1MDgO6zlZVomxwXiuD8-25" vertex="1">
          <mxGeometry y="30" width="430" height="21" as="geometry" />
        </mxCell>
        <mxCell id="P1MDgO6zlZVomxwXiuD8-27" value="&lt;b&gt;Element&lt;/b&gt;" style="shape=partialRectangle;html=1;whiteSpace=wrap;connectable=0;overflow=hidden;top=0;left=0;bottom=0;right=0;pointerEvents=1;fontSize=13;fillColor=none;fontColor=#333333;strokeColor=#000000;" parent="P1MDgO6zlZVomxwXiuD8-26" vertex="1">
          <mxGeometry width="143" height="21" as="geometry">
            <mxRectangle width="143" height="21" as="alternateBounds" />
          </mxGeometry>
        </mxCell>
        <mxCell id="P1MDgO6zlZVomxwXiuD8-28" value="&lt;b&gt;Symbol&lt;/b&gt;" style="shape=partialRectangle;html=1;whiteSpace=wrap;connectable=0;overflow=hidden;top=0;left=0;bottom=0;right=0;pointerEvents=1;fontSize=13;fillColor=none;" parent="P1MDgO6zlZVomxwXiuD8-26" vertex="1">
          <mxGeometry x="143" width="287" height="21" as="geometry">
            <mxRectangle width="287" height="21" as="alternateBounds" />
          </mxGeometry>
        </mxCell>
        <mxCell id="P1MDgO6zlZVomxwXiuD8-30" value="" style="shape=tableRow;horizontal=0;startSize=0;swimlaneHead=0;swimlaneBody=0;strokeColor=default;top=0;left=0;bottom=0;right=0;collapsible=0;dropTarget=0;fillColor=none;points=[[0,0.5],[1,0.5]];portConstraint=eastwest;fontSize=13;" parent="P1MDgO6zlZVomxwXiuD8-25" vertex="1">
          <mxGeometry y="51" width="430" height="56" as="geometry" />
        </mxCell>
        <mxCell id="P1MDgO6zlZVomxwXiuD8-31" value="&lt;b&gt;Ereignis&lt;/b&gt;" style="shape=partialRectangle;html=1;whiteSpace=wrap;connectable=0;strokeColor=inherit;overflow=hidden;fillColor=none;top=0;left=0;bottom=0;right=0;pointerEvents=1;fontSize=13;" parent="P1MDgO6zlZVomxwXiuD8-30" vertex="1">
          <mxGeometry width="143" height="56" as="geometry">
            <mxRectangle width="143" height="56" as="alternateBounds" />
          </mxGeometry>
        </mxCell>
        <mxCell id="P1MDgO6zlZVomxwXiuD8-32" value="" style="shape=partialRectangle;html=1;whiteSpace=wrap;connectable=0;strokeColor=default;overflow=hidden;fillColor=none;top=0;left=0;bottom=0;right=0;pointerEvents=1;fontSize=13;" parent="P1MDgO6zlZVomxwXiuD8-30" vertex="1">
          <mxGeometry x="143" width="287" height="56" as="geometry">
            <mxRectangle width="287" height="56" as="alternateBounds" />
          </mxGeometry>
        </mxCell>
        <mxCell id="P1MDgO6zlZVomxwXiuD8-34" value="" style="shape=tableRow;horizontal=0;startSize=0;swimlaneHead=0;swimlaneBody=0;strokeColor=inherit;top=0;left=0;bottom=0;right=0;collapsible=0;dropTarget=0;fillColor=none;points=[[0,0.5],[1,0.5]];portConstraint=eastwest;fontSize=13;" parent="P1MDgO6zlZVomxwXiuD8-25" vertex="1">
          <mxGeometry y="107" width="430" height="58" as="geometry" />
        </mxCell>
        <mxCell id="P1MDgO6zlZVomxwXiuD8-35" value="&lt;b&gt;Aktivität&lt;/b&gt;" style="shape=partialRectangle;html=1;whiteSpace=wrap;connectable=0;strokeColor=inherit;overflow=hidden;fillColor=none;top=0;left=0;bottom=0;right=0;pointerEvents=1;fontSize=13;" parent="P1MDgO6zlZVomxwXiuD8-34" vertex="1">
          <mxGeometry width="143" height="58" as="geometry">
            <mxRectangle width="143" height="58" as="alternateBounds" />
          </mxGeometry>
        </mxCell>
        <mxCell id="P1MDgO6zlZVomxwXiuD8-36" value="" style="shape=partialRectangle;html=1;whiteSpace=wrap;connectable=0;strokeColor=inherit;overflow=hidden;fillColor=none;top=0;left=0;bottom=0;right=0;pointerEvents=1;fontSize=13;" parent="P1MDgO6zlZVomxwXiuD8-34" vertex="1">
          <mxGeometry x="143" width="287" height="58" as="geometry">
            <mxRectangle width="287" height="58" as="alternateBounds" />
          </mxGeometry>
        </mxCell>
        <mxCell id="P1MDgO6zlZVomxwXiuD8-42" value="" style="shape=tableRow;horizontal=0;startSize=0;swimlaneHead=0;swimlaneBody=0;strokeColor=inherit;top=0;left=0;bottom=0;right=0;collapsible=0;dropTarget=0;fillColor=none;points=[[0,0.5],[1,0.5]];portConstraint=eastwest;fontSize=13;" parent="P1MDgO6zlZVomxwXiuD8-25" vertex="1">
          <mxGeometry y="165" width="430" height="57" as="geometry" />
        </mxCell>
        <mxCell id="P1MDgO6zlZVomxwXiuD8-43" value="&lt;b&gt;Gateways&lt;/b&gt;" style="shape=partialRectangle;html=1;whiteSpace=wrap;connectable=0;strokeColor=inherit;overflow=hidden;fillColor=none;top=0;left=0;bottom=0;right=0;pointerEvents=1;fontSize=13;" parent="P1MDgO6zlZVomxwXiuD8-42" vertex="1">
          <mxGeometry width="143" height="57" as="geometry">
            <mxRectangle width="143" height="57" as="alternateBounds" />
          </mxGeometry>
        </mxCell>
        <mxCell id="P1MDgO6zlZVomxwXiuD8-44" value="" style="shape=partialRectangle;html=1;whiteSpace=wrap;connectable=0;strokeColor=inherit;overflow=hidden;fillColor=none;top=0;left=0;bottom=0;right=0;pointerEvents=1;fontSize=13;" parent="P1MDgO6zlZVomxwXiuD8-42" vertex="1">
          <mxGeometry x="143" width="287" height="57" as="geometry">
            <mxRectangle width="287" height="57" as="alternateBounds" />
          </mxGeometry>
        </mxCell>
        <mxCell id="P1MDgO6zlZVomxwXiuD8-56" style="shape=tableRow;horizontal=0;startSize=0;swimlaneHead=0;swimlaneBody=0;strokeColor=inherit;top=0;left=0;bottom=0;right=0;collapsible=0;dropTarget=0;fillColor=none;points=[[0,0.5],[1,0.5]];portConstraint=eastwest;fontSize=13;" parent="P1MDgO6zlZVomxwXiuD8-25" vertex="1">
          <mxGeometry y="222" width="430" height="58" as="geometry" />
        </mxCell>
        <mxCell id="P1MDgO6zlZVomxwXiuD8-57" value="&lt;b&gt;Kontrollfluss&lt;/b&gt;" style="shape=partialRectangle;html=1;whiteSpace=wrap;connectable=0;strokeColor=inherit;overflow=hidden;fillColor=none;top=0;left=0;bottom=0;right=0;pointerEvents=1;fontSize=13;" parent="P1MDgO6zlZVomxwXiuD8-56" vertex="1">
          <mxGeometry width="143" height="58" as="geometry">
            <mxRectangle width="143" height="58" as="alternateBounds" />
          </mxGeometry>
        </mxCell>
        <mxCell id="P1MDgO6zlZVomxwXiuD8-58" style="shape=partialRectangle;html=1;whiteSpace=wrap;connectable=0;strokeColor=inherit;overflow=hidden;fillColor=none;top=0;left=0;bottom=0;right=0;pointerEvents=1;fontSize=13;" parent="P1MDgO6zlZVomxwXiuD8-56" vertex="1">
          <mxGeometry x="143" width="287" height="58" as="geometry">
            <mxRectangle width="287" height="58" as="alternateBounds" />
          </mxGeometry>
        </mxCell>
        <mxCell id="P1MDgO6zlZVomxwXiuD8-74" value="" style="points=[[0.145,0.145,0],[0.5,0,0],[0.855,0.145,0],[1,0.5,0],[0.855,0.855,0],[0.5,1,0],[0.145,0.855,0],[0,0.5,0]];shape=mxgraph.bpmn.event;html=1;verticalLabelPosition=bottom;labelBackgroundColor=#ffffff;verticalAlign=top;align=center;perimeter=ellipsePerimeter;outlineConnect=0;aspect=fixed;outline=standard;symbol=general;" parent="1" vertex="1">
          <mxGeometry x="10" y="667" width="43" height="43" as="geometry" />
        </mxCell>
        <mxCell id="P1MDgO6zlZVomxwXiuD8-75" value="" style="points=[[0.145,0.145,0],[0.5,0,0],[0.855,0.145,0],[1,0.5,0],[0.855,0.855,0],[0.5,1,0],[0.145,0.855,0],[0,0.5,0]];shape=mxgraph.bpmn.event;html=1;verticalLabelPosition=bottom;labelBackgroundColor=#ffffff;verticalAlign=top;align=center;perimeter=ellipsePerimeter;outlineConnect=0;aspect=fixed;outline=throwing;symbol=general;strokeColor=#000000;" parent="1" vertex="1">
          <mxGeometry x="99" y="667" width="43" height="43" as="geometry" />
        </mxCell>
        <mxCell id="P1MDgO6zlZVomxwXiuD8-76" value="" style="points=[[0.145,0.145,0],[0.5,0,0],[0.855,0.145,0],[1,0.5,0],[0.855,0.855,0],[0.5,1,0],[0.145,0.855,0],[0,0.5,0]];shape=mxgraph.bpmn.event;html=1;verticalLabelPosition=bottom;labelBackgroundColor=#ffffff;verticalAlign=top;align=center;perimeter=ellipsePerimeter;outlineConnect=0;aspect=fixed;outline=end;symbol=terminate2;strokeColor=#000000;" parent="1" vertex="1">
          <mxGeometry x="188" y="667" width="43" height="43" as="geometry" />
        </mxCell>
        <mxCell id="P1MDgO6zlZVomxwXiuD8-77" value="" style="points=[[0.25,0,0],[0.5,0,0],[0.75,0,0],[1,0.25,0],[1,0.5,0],[1,0.75,0],[0.75,1,0],[0.5,1,0],[0.25,1,0],[0,0.75,0],[0,0.5,0],[0,0.25,0]];shape=mxgraph.bpmn.task;whiteSpace=wrap;rectStyle=rounded;size=10;html=1;container=1;expand=0;collapsible=0;taskMarker=abstract;" parent="1" vertex="1">
          <mxGeometry x="20.5" y="724" width="78.5" height="44" as="geometry" />
        </mxCell>
        <mxCell id="P1MDgO6zlZVomxwXiuD8-78" value="" style="points=[[0.25,0,0],[0.5,0,0],[0.75,0,0],[1,0.25,0],[1,0.5,0],[1,0.75,0],[0.75,1,0],[0.5,1,0],[0.25,1,0],[0,0.75,0],[0,0.5,0],[0,0.25,0]];shape=mxgraph.bpmn.task;whiteSpace=wrap;rectStyle=rounded;size=10;html=1;container=1;expand=0;collapsible=0;taskMarker=abstract;isLoopSub=1;strokeColor=#000000;" parent="1" vertex="1">
          <mxGeometry x="142" y="724" width="83" height="44" as="geometry" />
        </mxCell>
        <mxCell id="P1MDgO6zlZVomxwXiuD8-83" value="" style="edgeStyle=elbowEdgeStyle;fontSize=12;html=1;endArrow=blockThin;endFill=1;rounded=0;" parent="1" edge="1">
          <mxGeometry width="160" relative="1" as="geometry">
            <mxPoint x="40.5" y="860" as="sourcePoint" />
            <mxPoint x="200.5" y="860" as="targetPoint" />
          </mxGeometry>
        </mxCell>
        <mxCell id="P1MDgO6zlZVomxwXiuD8-95" value="" style="points=[[0.25,0.25,0],[0.5,0,0],[0.75,0.25,0],[1,0.5,0],[0.75,0.75,0],[0.5,1,0],[0.25,0.75,0],[0,0.5,0]];shape=mxgraph.bpmn.gateway2;html=1;verticalLabelPosition=bottom;labelBackgroundColor=#ffffff;verticalAlign=top;align=center;perimeter=rhombusPerimeter;outlineConnect=0;outline=none;symbol=none;gwType=parallel;strokeColor=#000000;" parent="1" vertex="1">
          <mxGeometry x="138" y="779" width="50" height="50" as="geometry" />
        </mxCell>
        <mxCell id="P1MDgO6zlZVomxwXiuD8-96" value="" style="points=[[0.25,0.25,0],[0.5,0,0],[0.75,0.25,0],[1,0.5,0],[0.75,0.75,0],[0.5,1,0],[0.25,0.75,0],[0,0.5,0]];shape=mxgraph.bpmn.gateway2;html=1;verticalLabelPosition=bottom;labelBackgroundColor=#ffffff;verticalAlign=top;align=center;perimeter=rhombusPerimeter;outlineConnect=0;outline=none;symbol=none;strokeColor=#000000;" parent="1" vertex="1">
          <mxGeometry x="-5" y="779" width="50" height="50" as="geometry" />
        </mxCell>
        <mxCell id="P1MDgO6zlZVomxwXiuD8-97" value="" style="points=[[0.25,0.25,0],[0.5,0,0],[0.75,0.25,0],[1,0.5,0],[0.75,0.75,0],[0.5,1,0],[0.25,0.75,0],[0,0.5,0]];shape=mxgraph.bpmn.gateway2;html=1;verticalLabelPosition=bottom;labelBackgroundColor=#ffffff;verticalAlign=top;align=center;perimeter=rhombusPerimeter;outlineConnect=0;outline=none;symbol=none;gwType=exclusive;strokeColor=#000000;" parent="1" vertex="1">
          <mxGeometry x="65" y="779" width="50" height="50" as="geometry" />
        </mxCell>
        <mxCell id="P1MDgO6zlZVomxwXiuD8-98" value="" style="points=[[0.25,0.25,0],[0.5,0,0],[0.75,0.25,0],[1,0.5,0],[0.75,0.75,0],[0.5,1,0],[0.25,0.75,0],[0,0.5,0]];shape=mxgraph.bpmn.gateway2;html=1;verticalLabelPosition=bottom;labelBackgroundColor=#ffffff;verticalAlign=top;align=center;perimeter=rhombusPerimeter;outlineConnect=0;outline=end;symbol=general;strokeColor=#000000;" parent="1" vertex="1">
          <mxGeometry x="205" y="779" width="50" height="50" as="geometry" />
        </mxCell>
      </root>
    </mxGraphModel>
  </diagram>
</mxfile>
